<svg width="130" height="130" viewBox="0 0 130 130" fill="none" xmlns="http://www.w3.org/2000/svg">
<circle cx="65" cy="65" r="65" fill="#CBE8CA"/>
<path d="M17.764 70.196C17.4933 70.196 17.2647 70.1073 17.078 69.93C16.9007 69.7527 16.812 69.524 16.812 69.244C16.812 68.964 16.9007 68.7353 17.078 68.558C17.2647 68.3807 17.4933 68.292 17.764 68.292C18.044 68.292 18.2727 68.3807 18.45 68.558C18.6273 68.7353 18.716 68.964 18.716 69.244C18.716 69.524 18.6273 69.7527 18.45 69.93C18.2727 70.1073 18.044 70.196 17.764 70.196ZM24.497 70.196C23.7877 70.196 23.2323 70.0607 22.831 69.79C22.439 69.5193 22.1543 69.2113 21.977 68.866H21.781V70H20.703V60.2H21.809V64.232H22.005C22.117 64.0173 22.2757 63.8167 22.481 63.63C22.6863 63.434 22.9523 63.2753 23.279 63.154C23.615 63.0233 24.021 62.958 24.497 62.958C25.0943 62.958 25.6357 63.1027 26.121 63.392C26.6157 63.672 27.0077 64.078 27.297 64.61C27.5863 65.1327 27.731 65.758 27.731 66.486V66.668C27.731 67.396 27.5817 68.026 27.283 68.558C26.9937 69.09 26.6017 69.496 26.107 69.776C25.6217 70.056 25.085 70.196 24.497 70.196ZM24.203 69.216C24.9123 69.216 25.4863 68.992 25.925 68.544C26.373 68.0867 26.597 67.452 26.597 66.64V66.514C26.597 65.702 26.373 65.072 25.925 64.624C25.4863 64.1667 24.9123 63.938 24.203 63.938C23.503 63.938 22.9243 64.1667 22.467 64.624C22.019 65.072 21.795 65.702 21.795 66.514V66.64C21.795 67.452 22.019 68.0867 22.467 68.544C22.9243 68.992 23.503 69.216 24.203 69.216ZM29.3768 66.612V66.416C29.3768 65.6973 29.5214 65.0813 29.8108 64.568C30.1001 64.0547 30.4921 63.658 30.9868 63.378C31.4814 63.098 32.0228 62.958 32.6108 62.958C33.3294 62.958 33.8801 63.098 34.2628 63.378C34.6548 63.6487 34.9441 63.952 35.1308 64.288H35.3268V63.154H36.3768V71.596C36.3768 71.9693 36.2741 72.2633 36.0688 72.478C35.8634 72.6927 35.5648 72.8 35.1728 72.8H30.5248V71.82H34.8788C35.1588 71.82 35.2988 71.68 35.2988 71.4V68.796H35.1028C34.9908 69.0013 34.8321 69.202 34.6268 69.398C34.4214 69.594 34.1554 69.7573 33.8288 69.888C33.5021 70.0093 33.0961 70.07 32.6108 70.07C32.0228 70.07 31.4814 69.93 30.9868 69.65C30.4921 69.37 30.1001 68.9733 29.8108 68.46C29.5214 67.9373 29.3768 67.3213 29.3768 66.612ZM32.9048 69.09C33.6141 69.09 34.1881 68.866 34.6268 68.418C35.0748 67.97 35.2988 67.354 35.2988 66.57V66.458C35.2988 65.6647 35.0748 65.0487 34.6268 64.61C34.1881 64.162 33.6141 63.938 32.9048 63.938C32.2048 63.938 31.6261 64.162 31.1688 64.61C30.7208 65.0487 30.4968 65.6647 30.4968 66.458V66.57C30.4968 67.354 30.7208 67.97 31.1688 68.418C31.6261 68.866 32.2048 69.09 32.9048 69.09ZM38.6392 66.906V65.884H42.7832V66.906H38.6392ZM45.0663 70V63.154H46.1443V64.008H46.3403C46.471 63.7653 46.6856 63.5413 46.9843 63.336C47.283 63.1307 47.703 63.028 48.2443 63.028C48.7763 63.028 49.2056 63.1447 49.5323 63.378C49.8683 63.6113 50.111 63.896 50.2603 64.232H50.4563C50.615 63.896 50.853 63.6113 51.1703 63.378C51.497 63.1447 51.9496 63.028 52.5283 63.028C52.9856 63.028 53.387 63.1213 53.7323 63.308C54.0776 63.4947 54.3483 63.7653 54.5443 64.12C54.7496 64.4653 54.8523 64.8807 54.8523 65.366V70H53.7463V65.464C53.7463 65.0067 53.611 64.6473 53.3403 64.386C53.079 64.1153 52.7103 63.98 52.2343 63.98C51.7303 63.98 51.315 64.1433 50.9883 64.47C50.671 64.7967 50.5123 65.268 50.5123 65.884V70H49.4063V65.464C49.4063 65.0067 49.271 64.6473 49.0003 64.386C48.739 64.1153 48.3703 63.98 47.8943 63.98C47.3903 63.98 46.975 64.1433 46.6483 64.47C46.331 64.7967 46.1723 65.268 46.1723 65.884V70H45.0663ZM59.2112 70.196C58.7352 70.196 58.3012 70.112 57.9092 69.944C57.5172 69.776 57.2092 69.5333 56.9852 69.216C56.7612 68.8987 56.6492 68.5113 56.6492 68.054C56.6492 67.5873 56.7612 67.2047 56.9852 66.906C57.2092 66.598 57.5172 66.3693 57.9092 66.22C58.3012 66.0613 58.7399 65.982 59.2252 65.982H61.5352V65.478C61.5352 64.9927 61.3906 64.61 61.1012 64.33C60.8212 64.05 60.4012 63.91 59.8412 63.91C59.2906 63.91 58.8612 64.0453 58.5532 64.316C58.2452 64.5773 58.0352 64.932 57.9232 65.38L56.8872 65.044C56.9992 64.6613 57.1766 64.316 57.4192 64.008C57.6619 63.6907 57.9839 63.4387 58.3852 63.252C58.7959 63.056 59.2859 62.958 59.8552 62.958C60.7326 62.958 61.4139 63.1867 61.8992 63.644C62.3846 64.092 62.6272 64.7267 62.6272 65.548V68.642C62.6272 68.922 62.7579 69.062 63.0192 69.062H63.6492V70H62.6832C62.3752 70 62.1279 69.916 61.9412 69.748C61.7546 69.5707 61.6612 69.3373 61.6612 69.048V68.978H61.4932C61.3906 69.1553 61.2506 69.342 61.0732 69.538C60.9052 69.7247 60.6719 69.8787 60.3732 70C60.0746 70.1307 59.6872 70.196 59.2112 70.196ZM59.3372 69.244C59.9906 69.244 60.5179 69.0527 60.9192 68.67C61.3299 68.278 61.5352 67.732 61.5352 67.032V66.878H59.2672C58.8286 66.878 58.4646 66.976 58.1752 67.172C57.8952 67.3587 57.7552 67.6433 57.7552 68.026C57.7552 68.4087 57.8999 68.7073 58.1892 68.922C58.4879 69.1367 58.8706 69.244 59.3372 69.244ZM65.164 70V63.154H66.242V64.316H66.438C66.5873 63.9893 66.8393 63.6953 67.194 63.434C67.558 63.1633 68.09 63.028 68.79 63.028C69.3033 63.028 69.7606 63.1353 70.162 63.35C70.5726 63.5647 70.8993 63.882 71.142 64.302C71.3846 64.722 71.506 65.24 71.506 65.856V70H70.4V65.94C70.4 65.2587 70.2273 64.764 69.882 64.456C69.546 64.148 69.0886 63.994 68.51 63.994C67.8473 63.994 67.306 64.2087 66.886 64.638C66.4753 65.0673 66.27 65.7067 66.27 66.556V70H65.164ZM76.0785 70C75.6865 70 75.3832 69.8927 75.1685 69.678C74.9632 69.4633 74.8605 69.1693 74.8605 68.796V64.12H72.8025V63.154H74.8605V60.718H75.9665V63.154H78.2065V64.12H75.9665V68.628C75.9665 68.908 76.1018 69.048 76.3725 69.048H77.8985V70H76.0785ZM79.9979 70V63.154H81.1039V70H79.9979ZM80.5579 62.09C80.3153 62.09 80.1099 62.0107 79.9419 61.852C79.7833 61.6933 79.7039 61.4927 79.7039 61.25C79.7039 60.998 79.7833 60.7927 79.9419 60.634C80.1099 60.4753 80.3153 60.396 80.5579 60.396C80.8006 60.396 81.0013 60.4753 81.1599 60.634C81.3186 60.7927 81.3979 60.998 81.3979 61.25C81.3979 61.4927 81.3186 61.6933 81.1599 61.852C81.0013 62.0107 80.8006 62.09 80.5579 62.09ZM86.1876 70.196C85.3382 70.196 84.6196 70 84.0316 69.608C83.4529 69.216 83.1029 68.5953 82.9816 67.746L84.0316 67.508C84.1062 67.956 84.2462 68.3107 84.4516 68.572C84.6569 68.824 84.9089 69.006 85.2076 69.118C85.5156 69.2207 85.8422 69.272 86.1876 69.272C86.7009 69.272 87.1069 69.1693 87.4056 68.964C87.7042 68.7587 87.8536 68.4833 87.8536 68.138C87.8536 67.7833 87.7089 67.536 87.4196 67.396C87.1396 67.2467 86.7522 67.1253 86.2576 67.032L85.6836 66.934C85.2449 66.8593 84.8436 66.7427 84.4796 66.584C84.1156 66.4253 83.8262 66.2107 83.6116 65.94C83.3969 65.6693 83.2896 65.3287 83.2896 64.918C83.2896 64.302 83.5276 63.8213 84.0036 63.476C84.4796 63.1307 85.1096 62.958 85.8936 62.958C86.6682 62.958 87.2936 63.1353 87.7696 63.49C88.2549 63.8353 88.5676 64.3253 88.7076 64.96L87.6716 65.226C87.5876 64.7313 87.3869 64.386 87.0696 64.19C86.7522 63.9847 86.3602 63.882 85.8936 63.882C85.4269 63.882 85.0582 63.9707 84.7876 64.148C84.5169 64.316 84.3816 64.568 84.3816 64.904C84.3816 65.2307 84.5076 65.4733 84.7596 65.632C85.0209 65.7813 85.3662 65.8933 85.7956 65.968L86.3696 66.066C86.8549 66.15 87.2889 66.2667 87.6716 66.416C88.0636 66.556 88.3716 66.7613 88.5956 67.032C88.8289 67.3027 88.9456 67.6573 88.9456 68.096C88.9456 68.768 88.6936 69.286 88.1896 69.65C87.6949 70.014 87.0276 70.196 86.1876 70.196ZM90.7564 66.906V65.884H94.9004V66.906H90.7564ZM100.263 70.196C99.5728 70.196 98.9522 70.0653 98.4015 69.804C97.8602 69.5427 97.4308 69.1647 97.1135 68.67C96.8055 68.1753 96.6515 67.578 96.6515 66.878V66.612H97.7855V66.864C97.7855 67.5827 98.0142 68.1473 98.4715 68.558C98.9288 68.9687 99.5262 69.174 100.263 69.174C101.01 69.174 101.589 68.9827 101.999 68.6C102.419 68.208 102.629 67.718 102.629 67.13V67.018C102.629 66.5887 102.527 66.2433 102.321 65.982C102.116 65.7113 101.836 65.5153 101.481 65.394C101.136 65.2633 100.753 65.198 100.333 65.198H98.7375V63.784L102.475 61.39V61.222H96.8895V60.2H103.679V61.782L100.025 64.134V64.302H100.725C101.276 64.302 101.78 64.4047 102.237 64.61C102.704 64.806 103.073 65.1047 103.343 65.506C103.623 65.898 103.763 66.3927 103.763 66.99V67.144C103.763 67.76 103.619 68.2967 103.329 68.754C103.04 69.2113 102.634 69.566 102.111 69.818C101.589 70.07 100.973 70.196 100.263 70.196ZM108.951 70.196C107.84 70.196 106.953 69.8693 106.291 69.216C105.637 68.5533 105.311 67.564 105.311 66.248V63.952C105.311 62.6453 105.637 61.6607 106.291 60.998C106.953 60.3353 107.84 60.004 108.951 60.004C110.071 60.004 110.957 60.3353 111.611 60.998C112.273 61.6607 112.605 62.6453 112.605 63.952V66.248C112.605 67.564 112.273 68.5533 111.611 69.216C110.957 69.8693 110.071 70.196 108.951 70.196ZM108.951 69.174C109.791 69.174 110.421 68.922 110.841 68.418C111.261 67.914 111.471 67.2093 111.471 66.304V63.882C111.471 62.9767 111.256 62.2767 110.827 61.782C110.397 61.278 109.772 61.026 108.951 61.026C108.129 61.026 107.504 61.278 107.075 61.782C106.655 62.286 106.445 62.986 106.445 63.882V66.304C106.445 67.2187 106.655 67.928 107.075 68.432C107.495 68.9267 108.12 69.174 108.951 69.174Z" fill="black"/>
</svg>
