<svg width="130" height="130" viewBox="0 0 130 130" fill="none" xmlns="http://www.w3.org/2000/svg">
<circle cx="65" cy="65" r="65" fill="#B3D9FF"/>
<path d="M39.366 70V67.144H37.602V66.178H39.366V64.022H37.602V63.056H39.366V60.2H40.388V63.056H42.39V60.2H43.412V63.056H45.19V64.022H43.412V66.178H45.19V67.144H43.412V70H42.39V67.144H40.388V70H39.366ZM40.388 66.178H42.39V64.022H40.388V66.178ZM50.747 70.196C50.0377 70.196 49.4823 70.0607 49.081 69.79C48.689 69.5193 48.4043 69.2113 48.227 68.866H48.031V70H46.953V60.2H48.059V64.232H48.255C48.367 64.0173 48.5257 63.8167 48.731 63.63C48.9363 63.434 49.2023 63.2753 49.529 63.154C49.865 63.0233 50.271 62.958 50.747 62.958C51.3443 62.958 51.8857 63.1027 52.371 63.392C52.8657 63.672 53.2577 64.078 53.547 64.61C53.8363 65.1327 53.981 65.758 53.981 66.486V66.668C53.981 67.396 53.8317 68.026 53.533 68.558C53.2437 69.09 52.8517 69.496 52.357 69.776C51.8717 70.056 51.335 70.196 50.747 70.196ZM50.453 69.216C51.1623 69.216 51.7363 68.992 52.175 68.544C52.623 68.0867 52.847 67.452 52.847 66.64V66.514C52.847 65.702 52.623 65.072 52.175 64.624C51.7363 64.1667 51.1623 63.938 50.453 63.938C49.753 63.938 49.1743 64.1667 48.717 64.624C48.269 65.072 48.045 65.702 48.045 66.514V66.64C48.045 67.452 48.269 68.0867 48.717 68.544C49.1743 68.992 49.753 69.216 50.453 69.216ZM59.0428 70.196C58.3521 70.196 57.7314 70.0653 57.1808 69.804C56.6394 69.5427 56.2101 69.1647 55.8928 68.67C55.5848 68.1753 55.4308 67.578 55.4308 66.878V66.612H56.5648V66.864C56.5648 67.5827 56.7934 68.1473 57.2508 68.558C57.7081 68.9687 58.3054 69.174 59.0428 69.174C59.7894 69.174 60.3681 68.9827 60.7788 68.6C61.1988 68.208 61.4088 67.718 61.4088 67.13V67.018C61.4088 66.5887 61.3061 66.2433 61.1008 65.982C60.8954 65.7113 60.6154 65.5153 60.2608 65.394C59.9154 65.2633 59.5328 65.198 59.1128 65.198H57.5168V63.784L61.2548 61.39V61.222H55.6688V60.2H62.4588V61.782L58.8048 64.134V64.302H59.5048C60.0554 64.302 60.5594 64.4047 61.0168 64.61C61.4834 64.806 61.8521 65.1047 62.1228 65.506C62.4028 65.898 62.5428 66.3927 62.5428 66.99V67.144C62.5428 67.76 62.3981 68.2967 62.1088 68.754C61.8194 69.2113 61.4134 69.566 60.8908 69.818C60.3681 70.07 59.7521 70.196 59.0428 70.196ZM67.31 70.196C66.722 70.196 66.1807 70.056 65.686 69.776C65.1913 69.496 64.7993 69.09 64.51 68.558C64.2207 68.026 64.076 67.396 64.076 66.668V66.486C64.076 65.758 64.2207 65.1327 64.51 64.61C64.7993 64.078 65.1867 63.672 65.672 63.392C66.1667 63.1027 66.7127 62.958 67.31 62.958C67.786 62.958 68.1873 63.0233 68.514 63.154C68.85 63.2753 69.1207 63.434 69.326 63.63C69.5313 63.8167 69.69 64.0173 69.802 64.232H69.998V60.2H71.104V70H70.026V68.866H69.83C69.6433 69.2113 69.354 69.5193 68.962 69.79C68.57 70.0607 68.0193 70.196 67.31 70.196ZM67.604 69.216C68.3133 69.216 68.8873 68.992 69.326 68.544C69.774 68.0867 69.998 67.452 69.998 66.64V66.514C69.998 65.702 69.774 65.072 69.326 64.624C68.8873 64.1667 68.3133 63.938 67.604 63.938C66.904 63.938 66.3253 64.1667 65.868 64.624C65.42 65.072 65.196 65.702 65.196 66.514V66.64C65.196 67.452 65.42 68.0867 65.868 68.544C66.3253 68.992 66.904 69.216 67.604 69.216ZM76.4458 70.196C75.7271 70.196 75.1111 70.07 74.5978 69.818C74.0938 69.5567 73.7111 69.202 73.4498 68.754C73.1884 68.306 73.0578 67.7973 73.0578 67.228H74.1918C74.1918 67.8067 74.3831 68.278 74.7658 68.642C75.1484 68.9967 75.7084 69.174 76.4458 69.174C77.2204 69.174 77.8131 68.9687 78.2238 68.558C78.6438 68.138 78.8538 67.564 78.8538 66.836V65.478H78.6718C78.4944 65.758 78.2098 66.0193 77.8178 66.262C77.4351 66.4953 76.8938 66.612 76.1938 66.612C75.6058 66.612 75.0644 66.4813 74.5698 66.22C74.0844 65.9587 73.6971 65.59 73.4078 65.114C73.1184 64.638 72.9738 64.0733 72.9738 63.42V63.252C72.9738 62.58 73.1278 62.006 73.4358 61.53C73.7438 61.0447 74.1591 60.6713 74.6818 60.41C75.2138 60.1393 75.8158 60.004 76.4878 60.004C77.1691 60.004 77.7711 60.1393 78.2938 60.41C78.8258 60.6713 79.2411 61.0493 79.5398 61.544C79.8384 62.0293 79.9878 62.6173 79.9878 63.308V66.724C79.9878 67.452 79.8431 68.0773 79.5538 68.6C79.2738 69.1133 78.8678 69.51 78.3358 69.79C77.8038 70.0607 77.1738 70.196 76.4458 70.196ZM76.4878 65.66C76.9544 65.66 77.3651 65.5667 77.7198 65.38C78.0744 65.184 78.3498 64.918 78.5458 64.582C78.7511 64.2367 78.8538 63.8353 78.8538 63.378V63.266C78.8538 62.566 78.6344 62.02 78.1958 61.628C77.7664 61.2267 77.1971 61.026 76.4878 61.026C75.7784 61.026 75.2044 61.2267 74.7658 61.628C74.3271 62.02 74.1078 62.566 74.1078 63.266V63.378C74.1078 63.8353 74.2058 64.2367 74.4018 64.582C74.6071 64.918 74.8871 65.184 75.2418 65.38C75.6058 65.5667 76.0211 65.66 76.4878 65.66ZM83.338 70V64.12H81.238V63.154H83.338V61.404C83.338 61.0307 83.4407 60.7367 83.646 60.522C83.8607 60.3073 84.164 60.2 84.556 60.2H86.278V61.152H84.864C84.584 61.152 84.444 61.292 84.444 61.572V63.154H86.166V64.12H84.444V70H83.338ZM87.846 70V64.12H86.166V63.154H87.846V61.404C87.846 61.0307 87.9487 60.7367 88.154 60.522C88.3687 60.3073 88.672 60.2 89.064 60.2H90.786V61.152H89.358C89.0874 61.152 88.952 61.292 88.952 61.572V63.154H91.108V64.12H88.952V70H87.846Z" fill="black"/>
</svg>
