<svg width="130" height="130" viewBox="0 0 130 130" fill="none" xmlns="http://www.w3.org/2000/svg">
<circle cx="65" cy="65" r="65" fill="#B0E8E6"/>
<path d="M35.382 70.196C34.6727 70.196 34.038 70.07 33.478 69.818C32.918 69.566 32.4747 69.188 32.148 68.684C31.8307 68.1707 31.672 67.5313 31.672 66.766V66.472H32.834V66.766C32.834 67.578 33.072 68.1847 33.548 68.586C34.024 68.978 34.6353 69.174 35.382 69.174C36.1473 69.174 36.7307 69.0013 37.132 68.656C37.5333 68.3107 37.734 67.8767 37.734 67.354C37.734 66.99 37.6453 66.7007 37.468 66.486C37.2907 66.2713 37.0387 66.0987 36.712 65.968C36.3853 65.828 36.0027 65.7067 35.564 65.604L34.822 65.422C34.2527 65.2727 33.7487 65.0907 33.31 64.876C32.8713 64.6613 32.526 64.3813 32.274 64.036C32.0313 63.6813 31.91 63.2287 31.91 62.678C31.91 62.1273 32.05 61.6513 32.33 61.25C32.61 60.8487 32.9973 60.5407 33.492 60.326C33.9867 60.1113 34.5653 60.004 35.228 60.004C35.8907 60.004 36.4833 60.1207 37.006 60.354C37.5287 60.578 37.944 60.914 38.252 61.362C38.56 61.8007 38.714 62.356 38.714 63.028V63.616H37.552V63.028C37.552 62.552 37.4493 62.1693 37.244 61.88C37.048 61.5907 36.7727 61.376 36.418 61.236C36.0727 61.096 35.676 61.026 35.228 61.026C34.584 61.026 34.066 61.1707 33.674 61.46C33.282 61.74 33.086 62.1413 33.086 62.664C33.086 63.0093 33.1653 63.2893 33.324 63.504C33.492 63.7187 33.73 63.896 34.038 64.036C34.346 64.1667 34.7147 64.2833 35.144 64.386L35.886 64.568C36.446 64.6893 36.9547 64.8573 37.412 65.072C37.8693 65.2773 38.2287 65.562 38.49 65.926C38.7607 66.2807 38.896 66.7473 38.896 67.326C38.896 67.9047 38.7513 68.4087 38.462 68.838C38.1727 69.2673 37.762 69.6033 37.23 69.846C36.7073 70.0793 36.0913 70.196 35.382 70.196ZM34.85 71.624V58.576H35.928V71.624H34.85ZM43.9119 70.196C43.2213 70.196 42.6099 70.0513 42.0779 69.762C41.5553 69.4727 41.1446 69.0667 40.8459 68.544C40.5566 68.012 40.4119 67.3867 40.4119 66.668V66.486C40.4119 65.7767 40.5566 65.156 40.8459 64.624C41.1446 64.092 41.5553 63.6813 42.0779 63.392C42.6099 63.1027 43.2213 62.958 43.9119 62.958C44.6026 62.958 45.2093 63.1027 45.7319 63.392C46.2639 63.6813 46.6746 64.092 46.9639 64.624C47.2626 65.156 47.4119 65.7767 47.4119 66.486V66.668C47.4119 67.3867 47.2626 68.012 46.9639 68.544C46.6746 69.0667 46.2639 69.4727 45.7319 69.762C45.2093 70.0513 44.6026 70.196 43.9119 70.196ZM43.9119 69.202C44.6399 69.202 45.2186 68.9733 45.6479 68.516C46.0866 68.0493 46.3059 67.424 46.3059 66.64V66.514C46.3059 65.73 46.0866 65.1093 45.6479 64.652C45.2186 64.1853 44.6399 63.952 43.9119 63.952C43.1933 63.952 42.6146 64.1853 42.1759 64.652C41.7373 65.1093 41.5179 65.73 41.5179 66.514V66.64C41.5179 67.424 41.7373 68.0493 42.1759 68.516C42.6146 68.9733 43.1933 69.202 43.9119 69.202ZM52.5522 70.196C51.8896 70.196 51.2922 70.056 50.7602 69.776C50.2376 69.4867 49.8222 69.076 49.5142 68.544C49.2156 68.012 49.0662 67.382 49.0662 66.654V66.5C49.0662 65.7627 49.2156 65.1327 49.5142 64.61C49.8222 64.078 50.2376 63.672 50.7602 63.392C51.2922 63.1027 51.8896 62.958 52.5522 62.958C53.2056 62.958 53.7609 63.0793 54.2182 63.322C54.6849 63.5647 55.0489 63.8867 55.3102 64.288C55.5809 64.6893 55.7536 65.1187 55.8282 65.576L54.7502 65.8C54.7036 65.464 54.5916 65.156 54.4142 64.876C54.2462 64.596 54.0082 64.372 53.7002 64.204C53.3922 64.036 53.0142 63.952 52.5662 63.952C52.1089 63.952 51.6982 64.0547 51.3342 64.26C50.9796 64.4653 50.6949 64.7593 50.4802 65.142C50.2749 65.5247 50.1722 65.982 50.1722 66.514V66.64C50.1722 67.172 50.2749 67.6293 50.4802 68.012C50.6949 68.3947 50.9796 68.6887 51.3342 68.894C51.6982 69.0993 52.1089 69.202 52.5662 69.202C53.2476 69.202 53.7656 69.0247 54.1202 68.67C54.4842 68.3153 54.7082 67.8767 54.7922 67.354L55.8842 67.592C55.7816 68.04 55.5949 68.4647 55.3242 68.866C55.0536 69.2673 54.6849 69.5893 54.2182 69.832C53.7609 70.0747 53.2056 70.196 52.5522 70.196ZM60.9054 70.196C60.2148 70.196 59.6081 70.0513 59.0854 69.762C58.5628 69.4633 58.1568 69.048 57.8674 68.516C57.5781 67.984 57.4334 67.368 57.4334 66.668V66.5C57.4334 65.7907 57.5781 65.17 57.8674 64.638C58.1568 64.106 58.5581 63.6953 59.0714 63.406C59.5848 63.1073 60.1728 62.958 60.8354 62.958C61.4794 62.958 62.0488 63.098 62.5434 63.378C63.0381 63.6487 63.4254 64.0407 63.7054 64.554C63.9854 65.0673 64.1254 65.6693 64.1254 66.36V66.864H58.5394C58.5674 67.6013 58.8054 68.18 59.2534 68.6C59.7014 69.0107 60.2614 69.216 60.9334 69.216C61.5214 69.216 61.9741 69.0807 62.2914 68.81C62.6088 68.5393 62.8514 68.2173 63.0194 67.844L63.9714 68.306C63.8314 68.5953 63.6354 68.8847 63.3834 69.174C63.1408 69.4633 62.8188 69.706 62.4174 69.902C62.0254 70.098 61.5214 70.196 60.9054 70.196ZM58.5534 65.954H63.0054C62.9681 65.3193 62.7488 64.8247 62.3474 64.47C61.9554 64.1153 61.4514 63.938 60.8354 63.938C60.2101 63.938 59.6968 64.1153 59.2954 64.47C58.8941 64.8247 58.6468 65.3193 58.5534 65.954ZM68.1546 70.196C67.6786 70.196 67.2446 70.112 66.8526 69.944C66.4606 69.776 66.1526 69.5333 65.9286 69.216C65.7046 68.8987 65.5926 68.5113 65.5926 68.054C65.5926 67.5873 65.7046 67.2047 65.9286 66.906C66.1526 66.598 66.4606 66.3693 66.8526 66.22C67.2446 66.0613 67.6832 65.982 68.1686 65.982H70.4786V65.478C70.4786 64.9927 70.3339 64.61 70.0446 64.33C69.7646 64.05 69.3446 63.91 68.7846 63.91C68.2339 63.91 67.8046 64.0453 67.4966 64.316C67.1886 64.5773 66.9786 64.932 66.8666 65.38L65.8306 65.044C65.9426 64.6613 66.1199 64.316 66.3626 64.008C66.6052 63.6907 66.9272 63.4387 67.3286 63.252C67.7392 63.056 68.2292 62.958 68.7986 62.958C69.6759 62.958 70.3572 63.1867 70.8426 63.644C71.3279 64.092 71.5706 64.7267 71.5706 65.548V68.642C71.5706 68.922 71.7012 69.062 71.9626 69.062H72.5926V70H71.6266C71.3186 70 71.0712 69.916 70.8846 69.748C70.6979 69.5707 70.6046 69.3373 70.6046 69.048V68.978H70.4366C70.3339 69.1553 70.1939 69.342 70.0166 69.538C69.8486 69.7247 69.6152 69.8787 69.3166 70C69.0179 70.1307 68.6306 70.196 68.1546 70.196ZM68.2806 69.244C68.9339 69.244 69.4612 69.0527 69.8626 68.67C70.2732 68.278 70.4786 67.732 70.4786 67.032V66.878H68.2106C67.7719 66.878 67.4079 66.976 67.1186 67.172C66.8386 67.3587 66.6986 67.6433 66.6986 68.026C66.6986 68.4087 66.8432 68.7073 67.1326 68.922C67.4312 69.1367 67.8139 69.244 68.2806 69.244ZM74.1073 70V63.154H75.1853V64.316H75.3813C75.5306 63.9893 75.7826 63.6953 76.1373 63.434C76.5013 63.1633 77.0333 63.028 77.7333 63.028C78.2466 63.028 78.704 63.1353 79.1053 63.35C79.516 63.5647 79.8426 63.882 80.0853 64.302C80.328 64.722 80.4493 65.24 80.4493 65.856V70H79.3433V65.94C79.3433 65.2587 79.1706 64.764 78.8253 64.456C78.4893 64.148 78.032 63.994 77.4533 63.994C76.7906 63.994 76.2493 64.2087 75.8293 64.638C75.4186 65.0673 75.2133 65.7067 75.2133 66.556V70H74.1073ZM85.7733 70.196C85.0826 70.196 84.4619 70.0653 83.9113 69.804C83.3699 69.5427 82.9406 69.1647 82.6233 68.67C82.3153 68.1753 82.1613 67.578 82.1613 66.878V66.612H83.2953V66.864C83.2953 67.5827 83.5239 68.1473 83.9813 68.558C84.4386 68.9687 85.0359 69.174 85.7733 69.174C86.5199 69.174 87.0986 68.9827 87.5093 68.6C87.9293 68.208 88.1393 67.718 88.1393 67.13V67.018C88.1393 66.5887 88.0366 66.2433 87.8313 65.982C87.6259 65.7113 87.3459 65.5153 86.9913 65.394C86.6459 65.2633 86.2633 65.198 85.8433 65.198H84.2473V63.784L87.9853 61.39V61.222H82.3993V60.2H89.1893V61.782L85.5353 64.134V64.302H86.2353C86.7859 64.302 87.2899 64.4047 87.7473 64.61C88.2139 64.806 88.5826 65.1047 88.8533 65.506C89.1333 65.898 89.2733 66.3927 89.2733 66.99V67.144C89.2733 67.76 89.1286 68.2967 88.8393 68.754C88.5499 69.2113 88.1439 69.566 87.6213 69.818C87.0986 70.07 86.4826 70.196 85.7733 70.196ZM94.4605 70.196C93.3498 70.196 92.4631 69.8693 91.8005 69.216C91.1471 68.5533 90.8205 67.564 90.8205 66.248V63.952C90.8205 62.6453 91.1471 61.6607 91.8005 60.998C92.4631 60.3353 93.3498 60.004 94.4605 60.004C95.5805 60.004 96.4671 60.3353 97.1205 60.998C97.7831 61.6607 98.1145 62.6453 98.1145 63.952V66.248C98.1145 67.564 97.7831 68.5533 97.1205 69.216C96.4671 69.8693 95.5805 70.196 94.4605 70.196ZM94.4605 69.174C95.3005 69.174 95.9305 68.922 96.3505 68.418C96.7705 67.914 96.9805 67.2093 96.9805 66.304V63.882C96.9805 62.9767 96.7658 62.2767 96.3365 61.782C95.9071 61.278 95.2818 61.026 94.4605 61.026C93.6391 61.026 93.0138 61.278 92.5845 61.782C92.1645 62.286 91.9545 62.986 91.9545 63.882V66.304C91.9545 67.2187 92.1645 67.928 92.5845 68.432C93.0045 68.9267 93.6298 69.174 94.4605 69.174Z" fill="black"/>
</svg>
