<?xml version="1.0" encoding="utf-8"?>
<!-- Generator: Adobe Illustrator 19.1.0, SVG Export Plug-In . SVG Version: 6.00 Build 0)  -->
<svg version="1.1" id="Layer_1" xmlns="http://www.w3.org/2000/svg" xmlns:xlink="http://www.w3.org/1999/xlink" x="0px" y="0px"
	 viewBox="0 0 230 132" style="enable-background:new 0 0 230 132;" xml:space="preserve">
<style type="text/css">
	.st0{opacity:0.65;fill:#5B7EA1;}
	.st1{font-family:'Montserrat-Regular';}
	.st2{font-size:47.9957px;}
	.st3{letter-spacing:1;}
	.st4{letter-spacing:2;}
	.st5{fill:#5B7EA1;}
	.st6{opacity:0.65;fill:#5B7EA1;stroke:#5B7EA1;stroke-width:1.5;stroke-miterlimit:10;}
</style>
<text transform="matrix(1 0 0 1 15.7776 106.0773)"><tspan x="0" y="0" class="st0 st1 st2">o</tspan><tspan x="32.3" y="0" class="st0 st1 st2 st3">p</tspan><tspan x="66.4" y="0" class="st0 st1 st2 st4">e</tspan><tspan x="98.5" y="0" class="st0 st1 st2 st3">n</tspan><tspan x="131.4" y="0" class="st5 st1 st2 st3">a</tspan><tspan x="161.2" y="0" class="st5 st1 st2 st4">q</tspan></text>
<path class="st0" d="M52,46.1c0-1.1,0-3.2,0-4.9c6.4,0,25.9,0.1,33.8,0.1c17.2,0,34.4-0.1,51.6-0.1c6.3,0,11.6-3.9,13.2-9.9
	c1-3.7,0.5-7.2-2.1-10.2c-2.3-2.6-5.1-3.7-8.5-3.5c-3.3,0.3-6.3,3.2-6.8,6.5c-0.3,2.6,0.5,4.6,2.7,6c1.6,1,3.4,1.1,5.2,0.3
	c0.6-0.3,1.1-0.7,1.5-1.3c0.7-1.2,2.1-1.6,3.2-0.9c1.2,0.6,1.6,2,1,3.3c-0.9,1.8-2.4,2.9-4.2,3.6c-6.2,2.4-13.2-1.6-14.2-8.2
	c-0.7-4.8,1.7-9.9,6-12.4c3.5-2.1,7.3-2.3,11-1c5.5,1.9,9,5.8,10.2,11.5c0.8,4.1,0,8-2,11.6c-2.9,5.2-7.4,8.2-13.3,9.2
	c-1,0.2-2,0.2-3,0.2C127.1,46.1,63.7,46.1,52,46.1z"/>
<path class="st6" d="M92.4,35.8c-6.4,0-18.6,0-25,0c0-0.5,0-1.4,0-2.6c3.3,0,12.3,0,15.6,0c9.4,0,18.9,0,28.3,0
	c3.5,0,5.9-1.6,6.8-4.9c0.5-2-0.1-4.9-1.5-6.6c-1.2-1.4-3.4-2-5.3-1.9c-1.8,0.1-3.5,1.8-3.7,3.6c-0.2,1.4,0.3,2.5,1.5,3.3
	c0.9,0.5,1.9,0.6,2.8,0.2c0.3-0.1,1.1-0.3,1.6,0.2c0.8,0.9,0.2,2-0.8,2.4c-3.4,1.3-7.3-0.9-7.8-4.5c-0.4-2.6,1-5.4,3.3-6.8
	c1.9-1.1,5-1.1,7.1-0.4c3,1,4.9,4,5.6,7.1c0.5,2.2,0,4.4-1.1,6.4c-1.6,2.8-3.7,3.9-6.9,4.5c-0.5,0.1-1.1,0.1-1.7,0.1
	c-5.6,0-11.2,0-16.8,0C93.8,35.8,93.1,35.8,92.4,35.8C92.4,35.8,92.4,35.8,92.4,35.8z"/>
<path class="st6" d="M157.6,52.1c3.6,0,6.2,1.9,7.8,5c1.3,2.6,1.4,5.3-0.4,7.9c-1.6,2.3-3.8,3.3-6.6,3.1c-2.7-0.2-4.9-2.4-5.3-5.1
	c-0.1-0.4-0.1-0.7-0.1-1.1c0.1-0.7,0.7-1.2,1.4-1.2c0.7,0,1.3,0.5,1.4,1.2c0.1,0.5,0.1,1,0.3,1.5c0.6,1.5,2.2,2.2,3.8,1.8
	c2.2-0.5,3.6-2.5,3.4-4.8c-0.2-2.5-2.1-4.7-4.7-5.2c-0.4-0.1-0.9-0.1-1.3-0.1c-13.1,0-51.1,0.1-64.2,0.1c0-0.7,0-1.7,0-3.1
	c1.3,0,44.5,0,44.9,0C138.2,52.1,151.2,52.1,157.6,52.1z"/>
</svg>
