<svg id="Layer_1" xmlns="http://www.w3.org/2000/svg" viewBox="0 0 230 132"><style>.st0{opacity:.65}.st0,.st1,.st2{fill:#5b7ea1}.st2{opacity:.65;stroke:#5b7ea1;stroke-width:1.5;stroke-miterlimit:10}</style><path class="st0" d="M41 102.6c-2.6 2.5-5.8 3.8-9.6 3.8s-7-1.3-9.6-3.8c-2.6-2.5-3.8-5.7-3.8-9.3 0-3.7 1.3-6.8 3.8-9.3 2.6-2.5 5.8-3.8 9.6-3.8s7 1.3 9.6 3.8c2.6 2.5 3.8 5.7 3.8 9.3.1 3.7-1.2 6.8-3.8 9.3zm-15.4-3.3c1.5 1.6 3.4 2.3 5.8 2.3 2.3 0 4.3-.8 5.8-2.3 1.5-1.6 2.3-3.6 2.3-6 0-2.5-.8-4.5-2.3-6-1.5-1.6-3.4-2.3-5.8-2.3-2.3 0-4.3.8-5.8 2.3-1.5 1.6-2.3 3.6-2.3 6 .1 2.5.8 4.5 2.3 6zm40-19.1c3.4 0 6.4 1.2 8.8 3.6 2.4 2.4 3.6 5.5 3.6 9.5 0 3.9-1.2 7.1-3.6 9.6-2.4 2.5-5.2 3.7-8.4 3.7s-6.1-1.4-8.7-4.2v13.2h-5.4V80.5h5.4V85c2.1-3.2 4.9-4.8 8.3-4.8zm-8.4 13.2c0 2.4.7 4.4 2.2 6 1.5 1.6 3.3 2.3 5.4 2.3 2.1 0 4-.8 5.5-2.3 1.6-1.5 2.4-3.5 2.4-6s-.8-4.5-2.3-6.1c-1.5-1.6-3.4-2.4-5.5-2.4s-4 .8-5.4 2.4c-1.6 1.6-2.3 3.6-2.3 6.1zm52.6 2.3h-20c.1 1.9 1 3.4 2.5 4.5s3.4 1.7 5.4 1.7c3.2 0 5.6-1 7.3-3l3.1 3.4c-2.8 2.8-6.3 4.3-10.8 4.3-3.6 0-6.6-1.2-9.1-3.6-2.5-2.4-3.8-5.6-3.8-9.6s1.3-7.2 3.8-9.6c2.6-2.4 5.6-3.6 9-3.6s6.4 1 8.9 3.1c2.4 2.1 3.6 5 3.6 8.7v3.7zm-20-4.3h14.6c0-2.1-.7-3.8-2-4.9-1.3-1.2-3-1.7-5-1.7s-3.7.6-5.3 1.8c-1.5 1.2-2.3 2.8-2.3 4.8zm33.7.9v13.8h-5.4V80.5h5.4v4.7c.9-1.6 2.1-2.8 3.6-3.7 1.5-.9 3.2-1.3 4.9-1.3 2.9 0 5.2.9 7 2.6 1.8 1.8 2.7 4.3 2.7 7.6V106h-5.4V92c0-4.7-2-7.1-5.9-7.1-1.9 0-3.5.6-4.8 1.8-1.4 1.4-2.1 3.2-2.1 5.6z"/><path class="st1" d="M171.8 106.1h-4.9v-3.4c-2.1 2.5-4.9 3.8-8.5 3.8-2.7 0-4.9-.8-6.6-2.3-1.7-1.5-2.6-3.5-2.6-6s.9-4.4 2.8-5.6c1.9-1.2 4.4-1.9 7.5-1.9h7v-1c0-3.4-1.9-5.1-5.7-5.1-2.4 0-4.8.9-7.4 2.6l-2.4-3.4c3.1-2.5 6.6-3.7 10.6-3.7 3 0 5.5.8 7.4 2.3 1.9 1.5 2.9 3.9 2.9 7.2v16.5zm-5.4-9.5v-2.2h-6c-3.9 0-5.8 1.2-5.8 3.6 0 1.2.5 2.2 1.4 2.9 1 .7 2.3 1 4 1 1.7 0 3.2-.5 4.5-1.4 1.2-1 1.9-2.3 1.9-3.9zm24.9 9.9c-3.2 0-6-1.2-8.4-3.7-2.4-2.5-3.6-5.7-3.6-9.6 0-3.9 1.2-7.1 3.6-9.5 2.4-2.4 5.4-3.6 8.8-3.6s6.2 1.6 8.3 4.8v-4.5h5.4v34.8H200V102c-2.6 3.1-5.5 4.5-8.7 4.5zm-6.7-13.1c0 2.4.8 4.4 2.4 6 1.6 1.5 3.4 2.3 5.5 2.3s3.9-.8 5.4-2.3c1.5-1.6 2.2-3.5 2.2-6 0-2.4-.7-4.5-2.2-6.1-1.5-1.6-3.3-2.4-5.4-2.4-2.1 0-4 .8-5.5 2.4-1.6 1.6-2.4 3.6-2.4 6.1z"/><path class="st0" d="M52 46.1v-4.9c6.4 0 25.9.1 33.8.1 17.2 0 34.4-.1 51.6-.1 6.3 0 11.6-3.9 13.2-9.9 1-3.7.5-7.2-2.1-10.2-2.3-2.6-5.1-3.7-8.5-3.5-3.3.3-6.3 3.2-6.8 6.5-.3 2.6.5 4.6 2.7 6 1.6 1 3.4 1.1 5.2.3.6-.3 1.1-.7 1.5-1.3.7-1.2 2.1-1.6 3.2-.9 1.2.6 1.6 2 1 3.3-.9 1.8-2.4 2.9-4.2 3.6-6.2 2.4-13.2-1.6-14.2-8.2-.7-4.8 1.7-9.9 6-12.4 3.5-2.1 7.3-2.3 11-1 5.5 1.9 9 5.8 10.2 11.5.8 4.1 0 8-2 11.6-2.9 5.2-7.4 8.2-13.3 9.2-1 .2-2 .2-3 .2-10.2.1-73.6.1-85.3.1z"/><path class="st2" d="M92.4 35.8h-25v-2.6h43.9c3.5 0 5.9-1.6 6.8-4.9.5-2-.1-4.9-1.5-6.6-1.2-1.4-3.4-2-5.3-1.9-1.8.1-3.5 1.8-3.7 3.6-.2 1.4.3 2.5 1.5 3.3.9.5 1.9.6 2.8.2.3-.1 1.1-.3 1.6.2.8.9.2 2-.8 2.4-3.4 1.3-7.3-.9-7.8-4.5-.4-2.6 1-5.4 3.3-6.8 1.9-1.1 5-1.1 7.1-.4 3 1 4.9 4 5.6 7.1.5 2.2 0 4.4-1.1 6.4-1.6 2.8-3.7 3.9-6.9 4.5-.5.1-1.1.1-1.7.1H94.4c-.6-.1-1.3-.1-2-.1zm65.2 16.3c3.6 0 6.2 1.9 7.8 5 1.3 2.6 1.4 5.3-.4 7.9-1.6 2.3-3.8 3.3-6.6 3.1-2.7-.2-4.9-2.4-5.3-5.1-.1-.4-.1-.7-.1-1.1.1-.7.7-1.2 1.4-1.2s1.3.5 1.4 1.2c.1.5.1 1 .3 1.5.6 1.5 2.2 2.2 3.8 1.8 2.2-.5 3.6-2.5 3.4-4.8-.2-2.5-2.1-4.7-4.7-5.2-.4-.1-.9-.1-1.3-.1-13.1 0-51.1.1-64.2.1v-3.1h64.5z"/></svg>