<?xml version="1.0" encoding="utf-8"?>
<!-- Generator: Adobe Illustrator 19.1.0, SVG Export Plug-In . SVG Version: 6.00 Build 0)  -->
<svg version="1.1" id="Layer_1" xmlns="http://www.w3.org/2000/svg" xmlns:xlink="http://www.w3.org/1999/xlink" x="0px" y="0px"
	 viewBox="0 0 230 132" style="enable-background:new 0 0 230 132;" xml:space="preserve">
<style type="text/css">
	.st0{opacity:0.65;fill:#5B7EA1;}
	.st1{fill:#5B7EA1;}
	.st2{opacity:0.65;fill:#5B7EA1;stroke:#5B7EA1;stroke-width:1.5;stroke-miterlimit:10;}
</style>
<g>
	<path class="st0" d="M41,102.6c-2.6,2.5-5.8,3.8-9.6,3.8s-7-1.3-9.6-3.8c-2.6-2.5-3.8-5.7-3.8-9.3c0-3.7,1.3-6.8,3.8-9.3
		c2.6-2.5,5.8-3.8,9.6-3.8s7,1.3,9.6,3.8c2.6,2.5,3.8,5.7,3.8,9.3C44.9,97,43.6,100.1,41,102.6z M25.6,99.3c1.5,1.6,3.4,2.3,5.8,2.3
		c2.3,0,4.3-0.8,5.8-2.3c1.5-1.6,2.3-3.6,2.3-6c0-2.5-0.8-4.5-2.3-6c-1.5-1.6-3.4-2.3-5.8-2.3c-2.3,0-4.3,0.8-5.8,2.3
		c-1.5,1.6-2.3,3.6-2.3,6C23.4,95.8,24.1,97.8,25.6,99.3z"/>
	<path class="st0" d="M65.6,80.2c3.4,0,6.4,1.2,8.8,3.6c2.4,2.4,3.6,5.5,3.6,9.5c0,3.9-1.2,7.1-3.6,9.6c-2.4,2.5-5.2,3.7-8.4,3.7
		s-6.1-1.4-8.7-4.2v13.2h-5.4V80.5h5.4V85C59.4,81.8,62.2,80.2,65.6,80.2z M57.2,93.4c0,2.4,0.7,4.4,2.2,6c1.5,1.6,3.3,2.3,5.4,2.3
		c2.1,0,4-0.8,5.5-2.3c1.6-1.5,2.4-3.5,2.4-6s-0.8-4.5-2.3-6.1c-1.5-1.6-3.4-2.4-5.5-2.4c-2.1,0-4,0.8-5.4,2.4
		C57.9,88.9,57.2,90.9,57.2,93.4z"/>
	<path class="st0" d="M109.8,95.7h-20c0.1,1.9,1,3.4,2.5,4.5s3.4,1.7,5.4,1.7c3.2,0,5.6-1,7.3-3l3.1,3.4c-2.8,2.8-6.3,4.3-10.8,4.3
		c-3.6,0-6.6-1.2-9.1-3.6c-2.5-2.4-3.8-5.6-3.8-9.6c0-4,1.3-7.2,3.8-9.6c2.6-2.4,5.6-3.6,9-3.6s6.4,1,8.9,3.1c2.4,2.1,3.6,5,3.6,8.7
		V95.7z M89.8,91.4h14.6c0-2.1-0.7-3.8-2-4.9c-1.3-1.2-3-1.7-5-1.7c-2,0-3.7,0.6-5.3,1.8C90.6,87.8,89.8,89.4,89.8,91.4z"/>
	<path class="st0" d="M123.5,92.3v13.8h-5.4V80.5h5.4v4.7c0.9-1.6,2.1-2.8,3.6-3.7c1.5-0.9,3.2-1.3,4.9-1.3c2.9,0,5.2,0.9,7,2.6
		c1.8,1.8,2.7,4.3,2.7,7.6v15.6h-5.4v-14c0-4.7-2-7.1-5.9-7.1c-1.9,0-3.5,0.6-4.8,1.8C124.2,88.1,123.5,89.9,123.5,92.3z"/>
	<path class="st1" d="M171.8,106.1h-4.9v-3.4c-2.1,2.5-4.9,3.8-8.5,3.8c-2.7,0-4.9-0.8-6.6-2.3c-1.7-1.5-2.6-3.5-2.6-6
		c0-2.5,0.9-4.4,2.8-5.6c1.9-1.2,4.4-1.9,7.5-1.9h7v-1c0-3.4-1.9-5.1-5.7-5.1c-2.4,0-4.8,0.9-7.4,2.6l-2.4-3.4
		c3.1-2.5,6.6-3.7,10.6-3.7c3,0,5.5,0.8,7.4,2.3c1.9,1.5,2.9,3.9,2.9,7.2V106.1z M166.4,96.6v-2.2h-6c-3.9,0-5.8,1.2-5.8,3.6
		c0,1.2,0.5,2.2,1.4,2.9c1,0.7,2.3,1,4,1c1.7,0,3.2-0.5,4.5-1.4C165.7,99.5,166.4,98.2,166.4,96.6z"/>
	<path class="st1" d="M191.3,106.5c-3.2,0-6-1.2-8.4-3.7c-2.4-2.5-3.6-5.7-3.6-9.6c0-3.9,1.2-7.1,3.6-9.5c2.4-2.4,5.4-3.6,8.8-3.6
		s6.2,1.6,8.3,4.8v-4.5h5.4v34.8H200v-13.2C197.4,105.1,194.5,106.5,191.3,106.5z M184.6,93.4c0,2.4,0.8,4.4,2.4,6
		c1.6,1.5,3.4,2.3,5.5,2.3c2.1,0,3.9-0.8,5.4-2.3c1.5-1.6,2.2-3.5,2.2-6c0-2.4-0.7-4.5-2.2-6.1c-1.5-1.6-3.3-2.4-5.4-2.4
		c-2.1,0-4,0.8-5.5,2.4C185.4,88.9,184.6,90.9,184.6,93.4z"/>
</g>
<path class="st0" d="M52,46.1c0-1.1,0-3.2,0-4.9c6.4,0,25.9,0.1,33.8,0.1c17.2,0,34.4-0.1,51.6-0.1c6.3,0,11.6-3.9,13.2-9.9
	c1-3.7,0.5-7.2-2.1-10.2c-2.3-2.6-5.1-3.7-8.5-3.5c-3.3,0.3-6.3,3.2-6.8,6.5c-0.3,2.6,0.5,4.6,2.7,6c1.6,1,3.4,1.1,5.2,0.3
	c0.6-0.3,1.1-0.7,1.5-1.3c0.7-1.2,2.1-1.6,3.2-0.9c1.2,0.6,1.6,2,1,3.3c-0.9,1.8-2.4,2.9-4.2,3.6c-6.2,2.4-13.2-1.6-14.2-8.2
	c-0.7-4.8,1.7-9.9,6-12.4c3.5-2.1,7.3-2.3,11-1c5.5,1.9,9,5.8,10.2,11.5c0.8,4.1,0,8-2,11.6c-2.9,5.2-7.4,8.2-13.3,9.2
	c-1,0.2-2,0.2-3,0.2C127.1,46.1,63.7,46.1,52,46.1z"/>
<path class="st2" d="M92.4,35.8c-6.4,0-18.6,0-25,0c0-0.5,0-1.4,0-2.6c3.3,0,12.3,0,15.6,0c9.4,0,18.9,0,28.3,0
	c3.5,0,5.9-1.6,6.8-4.9c0.5-2-0.1-4.9-1.5-6.6c-1.2-1.4-3.4-2-5.3-1.9c-1.8,0.1-3.5,1.8-3.7,3.6c-0.2,1.4,0.3,2.5,1.5,3.3
	c0.9,0.5,1.9,0.6,2.8,0.2c0.3-0.1,1.1-0.3,1.6,0.2c0.8,0.9,0.2,2-0.8,2.4c-3.4,1.3-7.3-0.9-7.8-4.5c-0.4-2.6,1-5.4,3.3-6.8
	c1.9-1.1,5-1.1,7.1-0.4c3,1,4.9,4,5.6,7.1c0.5,2.2,0,4.4-1.1,6.4c-1.6,2.8-3.7,3.9-6.9,4.5c-0.5,0.1-1.1,0.1-1.7,0.1
	c-5.6,0-11.2,0-16.8,0C93.8,35.8,93.1,35.8,92.4,35.8C92.4,35.8,92.4,35.8,92.4,35.8z"/>
<path class="st2" d="M157.6,52.1c3.6,0,6.2,1.9,7.8,5c1.3,2.6,1.4,5.3-0.4,7.9c-1.6,2.3-3.8,3.3-6.6,3.1c-2.7-0.2-4.9-2.4-5.3-5.1
	c-0.1-0.4-0.1-0.7-0.1-1.1c0.1-0.7,0.7-1.2,1.4-1.2c0.7,0,1.3,0.5,1.4,1.2c0.1,0.5,0.1,1,0.3,1.5c0.6,1.5,2.2,2.2,3.8,1.8
	c2.2-0.5,3.6-2.5,3.4-4.8c-0.2-2.5-2.1-4.7-4.7-5.2c-0.4-0.1-0.9-0.1-1.3-0.1c-13.1,0-51.1,0.1-64.2,0.1c0-0.7,0-1.7,0-3.1
	c1.3,0,44.5,0,44.9,0C138.2,52.1,151.2,52.1,157.6,52.1z"/>
</svg>
