<?xml version="1.0" encoding="utf-8"?>
<svg version="1.1" xmlns="http://www.w3.org/2000/svg" xmlns:xlink="http://www.w3.org/1999/xlink" width="32" height="32" viewBox="0 0 32 32">
  <rect width="32" height="32" id="icon-bound" fill="none" />
  <path fill-rule="evenodd" d="M24.581,13.333L30.239,5.102C30.351,4.939 30.364,4.727 30.272,4.551C30.18,4.377 29.998,4.267 29.8,4.267L13.8,4.267L13.8,2.133C13.8,1.838 13.562,1.6 13.267,1.6L2.067,1.6L2.067,0.533C2.067,0.238 1.828,0 1.533,0C1.238,0 1,0.238 1,0.533L1,31.467C1,31.762 1.238,32 1.533,32C1.828,32 2.067,31.762 2.067,31.467L2.067,18.133L7.947,18.133C7.609,18.58 7.4,19.131 7.4,19.733C7.4,21.204 8.596,22.4 10.067,22.4L29.8,22.4C29.998,22.4 30.18,22.29 30.272,22.115C30.364,21.94 30.351,21.727 30.239,21.565L24.581,13.333ZM2.067,2.667L12.733,2.667L12.733,17.067L10.067,17.067L2.067,17.067L2.067,2.667ZM10.067,21.333C9.185,21.333 8.467,20.615 8.467,19.733C8.467,18.851 9.185,18.133 10.067,18.133L13.267,18.133C13.562,18.133 13.8,17.895 13.8,17.6L13.8,5.333L28.786,5.333L23.494,13.031C23.369,13.213 23.369,13.454 23.494,13.636L28.786,21.333L10.067,21.333Z" />
</svg>
