<?xml version="1.0" encoding="utf-8"?>
<svg version="1.1" xmlns="http://www.w3.org/2000/svg" xmlns:xlink="http://www.w3.org/1999/xlink" width="32" height="32" viewBox="0 0 32 32">
  <rect width="32" height="32" id="icon-bound" fill="none" />
  <path fill-rule="evenodd" d="M16,0C24.831,0 32,7.169 32,16C32,24.831 24.831,32 16,32C7.169,32 0,24.831 0,16C0,7.169 7.169,0 16,0ZM16,1C24.279,1 31,7.721 31,16C31,24.279 24.279,31 16,31C7.721,31 1,24.279 1,16C1,7.721 7.721,1 16,1ZM16.802,6.4C17.383,6.4 17.876,6.817 17.972,7.39L18.197,8.721C18.666,8.861 19.119,9.05 19.551,9.278L20.666,8.484C20.866,8.34 21.103,8.264 21.351,8.264C21.668,8.264 21.964,8.388 22.189,8.613L23.383,9.807C23.796,10.216 23.848,10.861 23.512,11.334L22.718,12.445C22.938,12.861 23.119,13.298 23.259,13.751L24.606,13.98C25.179,14.076 25.596,14.569 25.588,15.15L25.588,16.838C25.588,17.419 25.171,17.912 24.598,18.008L23.251,18.233C23.115,18.682 22.93,19.118 22.71,19.539L23.504,20.654C23.84,21.127 23.784,21.772 23.375,22.181L22.181,23.375C21.956,23.6 21.66,23.724 21.343,23.724C21.095,23.724 20.854,23.648 20.654,23.504L19.543,22.71C19.127,22.93 18.69,23.111 18.237,23.251L18.008,24.598C17.912,25.171 17.419,25.588 16.838,25.588L15.146,25.588C14.565,25.588 14.072,25.171 13.976,24.598L13.751,23.251C13.314,23.115 12.89,22.942 12.485,22.73L11.358,23.532C11.158,23.676 10.921,23.752 10.673,23.752C10.356,23.752 10.06,23.628 9.835,23.403L8.641,22.209C8.228,21.8 8.176,21.155 8.512,20.682L9.302,19.583C9.078,19.167 8.893,18.73 8.753,18.281L7.39,18.048C6.817,17.952 6.4,17.459 6.4,16.878L6.4,15.19C6.4,14.609 6.817,14.116 7.39,14.02L8.721,13.795C8.857,13.342 9.033,12.906 9.254,12.485L8.452,11.358C8.116,10.885 8.172,10.24 8.581,9.831L9.779,8.637C9.999,8.412 10.3,8.288 10.617,8.288C10.865,8.288 11.106,8.364 11.306,8.508L12.409,9.302C12.825,9.078 13.262,8.893 13.711,8.753L13.944,7.39C14.04,6.817 14.533,6.4 15.114,6.4L16.802,6.4ZM24.518,16.838L24.518,15.15C24.518,15.098 24.482,15.054 24.43,15.046L22.746,14.761C22.538,14.729 22.365,14.573 22.313,14.365C22.161,13.775 21.928,13.21 21.616,12.685C21.507,12.501 21.515,12.268 21.64,12.096L22.63,10.705C22.658,10.661 22.654,10.605 22.618,10.569L21.423,9.374C21.395,9.346 21.363,9.342 21.347,9.342C21.327,9.342 21.307,9.35 21.287,9.362L19.904,10.356C19.728,10.48 19.499,10.489 19.315,10.38C18.778,10.064 18.201,9.827 17.595,9.675C17.387,9.623 17.231,9.45 17.194,9.238L16.914,7.566C16.906,7.514 16.862,7.478 16.81,7.478L15.122,7.478C15.07,7.478 15.026,7.514 15.018,7.566L14.729,9.262C14.693,9.47 14.537,9.639 14.333,9.695C13.743,9.847 13.178,10.088 12.657,10.4C12.473,10.509 12.24,10.501 12.064,10.376L10.681,9.39C10.665,9.378 10.645,9.37 10.621,9.37C10.601,9.37 10.573,9.374 10.545,9.402L9.35,10.597C9.314,10.633 9.31,10.693 9.338,10.733L10.336,12.136C10.46,12.308 10.472,12.537 10.364,12.721C10.056,13.246 9.827,13.815 9.679,14.405C9.627,14.613 9.454,14.769 9.242,14.806L7.57,15.086C7.518,15.094 7.482,15.138 7.482,15.19L7.482,16.878C7.482,16.93 7.518,16.974 7.57,16.982L9.266,17.271C9.474,17.307 9.643,17.463 9.699,17.667C9.851,18.257 10.092,18.822 10.404,19.343C10.513,19.527 10.505,19.76 10.38,19.936L9.394,21.319C9.366,21.363 9.37,21.419 9.406,21.455L10.601,22.65C10.629,22.678 10.661,22.682 10.677,22.682C10.697,22.682 10.717,22.674 10.737,22.662L12.14,21.664C12.232,21.596 12.344,21.564 12.453,21.564C12.545,21.564 12.641,21.588 12.725,21.636C13.242,21.932 13.795,22.161 14.369,22.309C14.573,22.361 14.729,22.53 14.765,22.742L15.046,24.426C15.054,24.478 15.098,24.514 15.15,24.514L16.838,24.514C16.89,24.514 16.934,24.478 16.942,24.426L17.227,22.742C17.259,22.534 17.415,22.361 17.623,22.309C18.213,22.157 18.778,21.924 19.303,21.612C19.487,21.503 19.72,21.511 19.892,21.636L21.283,22.626C21.299,22.638 21.319,22.646 21.343,22.646C21.363,22.646 21.391,22.642 21.419,22.614L22.614,21.419C22.65,21.383 22.654,21.323 22.626,21.283L21.636,19.888C21.511,19.712 21.503,19.483 21.612,19.299C21.924,18.774 22.157,18.209 22.309,17.619C22.361,17.415 22.53,17.259 22.742,17.223L24.426,16.942C24.478,16.934 24.514,16.89 24.514,16.838L24.518,16.838ZM16.141,12C13.856,12 12,13.856 12,16.141C12,18.425 13.856,20.281 16.141,20.281C18.425,20.281 20.281,18.425 20.281,16.141C20.281,13.856 18.425,12 16.141,12ZM16.141,19.199C14.453,19.199 13.082,17.828 13.082,16.141C13.082,14.453 14.453,13.082 16.141,13.082C17.828,13.082 19.199,14.453 19.199,16.141C19.199,17.828 17.828,19.199 16.141,19.199Z" />
</svg>
