<?xml version="1.0" encoding="utf-8"?>
<svg version="1.1" xmlns="http://www.w3.org/2000/svg" xmlns:xlink="http://www.w3.org/1999/xlink" width="32" height="32" viewBox="0 0 32 32">
  <rect width="32" height="32" id="icon-bound" fill="none" />
  <path id="arrow-left" d="M7.78,19.342C8.17,19.74 8.17,20.38 7.776,20.767C7.375,21.162 6.741,21.162 6.34,20.767L2.193,16.71C1.799,16.321 1.799,15.678 2.193,15.29L6.34,11.233C6.741,10.838 7.375,10.838 7.776,11.233C8.17,11.621 8.17,12.264 7.776,12.652L5.371,14.994L28.979,14.994C29.54,14.994 30,15.438 30,15.995C30,16.552 29.54,17.006 28.979,17.006L5.372,17.006L7.78,19.342Z" />
</svg>
