<?xml version="1.0" encoding="utf-8"?>
<svg version="1.1" xmlns="http://www.w3.org/2000/svg" xmlns:xlink="http://www.w3.org/1999/xlink" width="32" height="32" viewBox="0 0 32 32">
  <rect width="32" height="32" id="icon-bound" fill="none" />
  <path fill-rule="evenodd" d="M32.032,13.509C32.032,15.838 30.573,17.832 28.52,18.626C28.517,18.974 28.499,19.333 28.464,19.695C28.423,20.128 28.091,20.481 27.658,20.554L26.264,20.788C25.998,21.998 25.529,23.134 24.865,24.171L25.684,25.32C25.939,25.678 25.923,26.162 25.646,26.498C25.393,26.805 25.128,27.098 24.859,27.366C24.59,27.635 24.298,27.9 23.99,28.154C23.655,28.431 23.17,28.446 22.812,28.191L21.664,27.373C20.626,28.037 19.491,28.506 18.281,28.771L18.046,30.165C17.974,30.599 17.62,30.931 17.187,30.972C16.79,31.01 16.396,31.029 16.016,31.029C15.636,31.029 15.242,31.01 14.845,30.972C14.412,30.931 14.059,30.599 13.986,30.165L13.752,28.771C12.541,28.506 11.406,28.037 10.369,27.373L9.22,28.191C8.862,28.446 8.378,28.431 8.042,28.154C7.734,27.9 7.442,27.635 7.173,27.366C6.904,27.097 6.639,26.805 6.386,26.498C6.109,26.162 6.094,25.678 6.349,25.32L7.167,24.171C6.503,23.134 6.034,21.998 5.769,20.788L4.375,20.554C3.941,20.481 3.609,20.128 3.568,19.695C3.535,19.352 3.511,18.55 3.495,18.055C1.407,16.845 0,14.586 0,12.004C0,10.244 0.657,8.563 1.85,7.271C2.975,6.051 4.482,5.277 6.118,5.073C6.891,3.607 8.033,2.367 9.433,1.476C10.95,0.51 12.706,0 14.512,0C16.188,0 17.835,0.444 19.276,1.285C20.551,2.03 21.643,3.069 22.453,4.306C22.962,4.111 23.494,4.012 24.04,4.012C26.477,4.012 28.465,5.967 28.52,8.39C29.476,8.76 30.327,9.403 30.943,10.228C31.656,11.181 32.032,12.315 32.032,13.509ZM26.548,18.055C29.054,18.055 31.094,16.015 31.094,13.509C31.094,11.507 29.811,9.762 27.902,9.168C27.696,9.104 27.561,8.908 27.573,8.694C27.574,8.669 27.576,8.645 27.577,8.621C27.58,8.575 27.583,8.531 27.583,8.493C27.583,6.54 25.994,4.951 24.04,4.951C23.497,4.951 22.971,5.074 22.477,5.318C22.257,5.427 21.991,5.348 21.866,5.137C21.12,3.881 20.061,2.83 18.803,2.096C17.506,1.339 16.022,0.938 14.512,0.938C12.885,0.938 11.303,1.398 9.937,2.267C8.609,3.113 7.538,4.307 6.841,5.721C6.768,5.868 6.624,5.966 6.46,5.981C4.958,6.111 3.565,6.795 2.539,7.907C1.507,9.025 0.938,10.481 0.938,12.004C0.938,15.34 3.653,18.055 6.989,18.054L7.49,18.054C7.749,18.054 7.959,18.264 7.959,18.524C7.959,18.783 7.749,18.993 7.49,18.993L6.989,18.993C6.094,18.993 5.238,18.824 4.451,18.516C4.456,18.858 4.473,19.3 4.502,19.605C4.503,19.614 4.514,19.626 4.53,19.629L6.242,19.916C6.436,19.949 6.589,20.099 6.625,20.293C6.871,21.604 7.375,22.823 8.123,23.916C8.234,24.078 8.232,24.293 8.118,24.453L7.113,25.864C7.104,25.877 7.104,25.894 7.109,25.901C7.344,26.185 7.589,26.455 7.837,26.703C8.085,26.951 8.354,27.195 8.639,27.43C8.646,27.436 8.663,27.436 8.675,27.427L10.086,26.422C10.247,26.308 10.461,26.306 10.624,26.417C11.716,27.165 12.935,27.669 14.247,27.914C14.441,27.951 14.591,28.104 14.623,28.298L14.911,30.01C14.914,30.026 14.925,30.037 14.934,30.038C15.302,30.073 15.666,30.091 16.016,30.091C16.366,30.091 16.73,30.073 17.098,30.038C17.107,30.037 17.118,30.026 17.121,30.01L17.409,28.298C17.441,28.104 17.592,27.951 17.785,27.914C19.097,27.669 20.316,27.165 21.409,26.417C21.571,26.306 21.785,26.308 21.946,26.422L23.357,27.427C23.369,27.436 23.386,27.436 23.393,27.43C23.678,27.195 23.947,26.95 24.195,26.703C24.443,26.455 24.688,26.185 24.923,25.901C24.928,25.894 24.928,25.877 24.919,25.864L23.914,24.453C23.8,24.293 23.798,24.078 23.909,23.916C24.657,22.823 25.161,21.604 25.407,20.293C25.443,20.099 25.596,19.949 25.79,19.916L27.502,19.629C27.518,19.626 27.529,19.614 27.53,19.605C27.553,19.366 27.568,19.129 27.576,18.896C27.243,18.959 26.899,18.993 26.548,18.993L21.984,18.993C21.744,22.075 19.159,24.51 16.016,24.51C12.873,24.51 10.289,22.075 10.049,18.993L9.496,18.993C9.237,18.993 9.027,18.783 9.027,18.524C9.027,18.264 9.237,18.055 9.496,18.055L26.548,18.055ZM21.041,18.993L10.991,18.993C11.229,21.557 13.391,23.571 16.016,23.571C18.641,23.571 20.803,21.557 21.041,18.993ZM8.639,20.078C8.889,20.009 9.147,20.155 9.216,20.405C10.057,23.45 12.853,25.577 16.016,25.577C19.179,25.577 21.975,23.45 22.816,20.405C22.885,20.155 23.143,20.009 23.393,20.078C23.643,20.147 23.789,20.405 23.72,20.655C22.768,24.106 19.6,26.516 16.016,26.516C12.432,26.516 9.264,24.106 8.312,20.655C8.243,20.405 8.389,20.147 8.639,20.078ZM13.95,14.354C14.038,14.598 13.91,14.866 13.666,14.954C13.614,14.972 13.561,14.981 13.508,14.981C13.316,14.981 13.135,14.861 13.067,14.669L12.282,12.473L8.717,12.473L7.932,14.669C7.864,14.861 7.683,14.981 7.49,14.981C7.438,14.981 7.385,14.972 7.333,14.954C7.088,14.866 6.961,14.598 7.048,14.354L9.387,7.805C9.555,7.336 10.002,7.021 10.499,7.021C10.997,7.021 11.444,7.336 11.612,7.805L12.339,9.841C12.426,10.085 12.299,10.354 12.055,10.441C11.811,10.528 11.542,10.401 11.455,10.157L10.728,8.12C10.693,8.024 10.602,7.96 10.499,7.96C10.397,7.96 10.306,8.024 10.271,8.12L9.052,11.535L12.602,11.535C12.793,11.536 12.987,11.656 13.055,11.847L13.95,14.354ZM17.615,7.021C19.118,7.021 20.341,8.244 20.341,9.747C20.341,11.25 19.118,12.473 17.615,12.473L17.364,12.473C17.105,12.473 16.895,12.263 16.895,12.004C16.895,11.745 17.105,11.535 17.364,11.535L17.615,11.535C18.6,11.535 19.402,10.733 19.402,9.747C19.402,8.762 18.6,7.96 17.615,7.96L15.859,7.96C15.842,7.96 15.827,7.974 15.827,7.992L15.827,14.512C15.827,14.771 15.617,14.981 15.358,14.981C15.099,14.981 14.889,14.771 14.889,14.512L14.889,7.992C14.889,7.457 15.324,7.021 15.859,7.021L17.615,7.021ZM22.034,7.021C22.293,7.021 22.503,7.231 22.503,7.49L22.503,14.512C22.503,14.771 22.293,14.981 22.034,14.981C21.775,14.981 21.565,14.771 21.565,14.512L21.565,7.49C21.565,7.231 21.775,7.021 22.034,7.021Z" />
</svg>
