<?xml version="1.0" encoding="utf-8"?>
<svg version="1.1" xmlns="http://www.w3.org/2000/svg" xmlns:xlink="http://www.w3.org/1999/xlink" width="24" height="24" viewBox="0 0 24 24">
  <rect width="24" height="24" id="icon-bound" fill="none" />
  <path d="M12,10.586L19.071,3.515C19.462,3.124 20.095,3.124 20.485,3.515C20.876,3.905 20.876,4.538 20.485,4.929L13.414,12L20.485,19.071C20.876,19.462 20.876,20.095 20.485,20.485C20.095,20.876 19.462,20.876 19.071,20.485L12,13.414L4.929,20.485C4.538,20.876 3.905,20.876 3.515,20.485C3.124,20.095 3.124,19.462 3.515,19.071L10.586,12L3.515,4.929C3.124,4.538 3.124,3.905 3.515,3.515C3.905,3.124 4.538,3.124 4.929,3.515L12,10.586Z" />
</svg>
