<?xml version="1.0" encoding="utf-8"?>
<svg version="1.1" xmlns="http://www.w3.org/2000/svg" xmlns:xlink="http://www.w3.org/1999/xlink" width="24" height="24" viewBox="0 0 24 24">
  <rect width="24" height="24" id="icon-bound" fill="none" />
  <path d="M5,3L23,3C23.552,3 24,3.448 24,4C24,4.552 23.552,5 23,5L5,5C4.448,5 4,4.552 4,4C4,3.448 4.448,3 5,3ZM1,11L23,11C23.552,11 24,11.448 24,12C24,12.552 23.552,13 23,13L1,13C0.448,13 0,12.552 0,12C0,11.448 0.448,11 1,11ZM11,19L23,19C23.552,19 24,19.448 24,20C24,20.552 23.552,21 23,21L11,21C10.448,21 10,20.552 10,20C10,19.448 10.448,19 11,19Z" />
</svg>
