<?xml version="1.0" encoding="utf-8"?>
<svg version="1.1" xmlns="http://www.w3.org/2000/svg" xmlns:xlink="http://www.w3.org/1999/xlink" width="32" height="32" viewBox="0 0 32 32">
  <rect width="32" height="32" id="icon-bound" fill="none" />
  <path fill-rule="evenodd" d="M16,0C24.831,0 32,7.169 32,16C32,24.831 24.831,32 16,32C7.169,32 0,24.831 0,16C0,7.169 7.169,0 16,0ZM16,1C24.279,1 31,7.721 31,16C31,24.279 24.279,31 16,31C7.721,31 1,24.279 1,16C1,7.721 7.721,1 16,1ZM16.35,6.4C12.628,6.4 9.6,9.428 9.6,13.15C9.6,14.408 9.948,15.635 10.608,16.699L15.966,25.334C16.068,25.5 16.249,25.6 16.444,25.6L16.448,25.6C16.644,25.598 16.826,25.495 16.926,25.327L22.148,16.608C22.771,15.566 23.1,14.37 23.1,13.15C23.1,9.428 20.072,6.4 16.35,6.4ZM21.182,16.031L16.435,23.957L11.564,16.107C11.015,15.221 10.718,14.198 10.718,13.15C10.718,10.048 13.248,7.518 16.35,7.518C19.452,7.518 21.979,10.048 21.979,13.15C21.979,14.167 21.701,15.163 21.182,16.031ZM16.175,10.4C14.314,10.4 12.8,11.914 12.8,13.775C12.8,15.624 14.289,17.15 16.175,17.15C18.084,17.15 19.55,15.604 19.55,13.775C19.55,11.914 18.036,10.4 16.175,10.4ZM16.175,16.032C14.928,16.032 13.918,15.019 13.918,13.775C13.918,12.534 14.934,11.518 16.175,11.518C17.416,11.518 18.429,12.534 18.429,13.775C18.429,15.001 17.442,16.032 16.175,16.032Z" />
</svg>
