<?xml version="1.0" encoding="utf-8"?>
<svg version="1.1" xmlns="http://www.w3.org/2000/svg" xmlns:xlink="http://www.w3.org/1999/xlink" width="32" height="32" viewBox="0 0 32 32">
  <rect width="32" height="32" id="icon-bound" fill="none" />
  <path d="M24.22,19.342C23.83,19.74 23.83,20.38 24.224,20.767C24.625,21.162 25.259,21.162 25.66,20.767L29.807,16.71C30.201,16.321 30.201,15.678 29.807,15.29L25.66,11.233C25.259,10.838 24.625,10.838 24.224,11.233C23.83,11.621 23.83,12.264 24.224,12.652L26.629,14.994L3.021,14.994C2.46,14.994 2,15.438 2,15.995C2,16.552 2.46,17.006 3.021,17.006L26.628,17.006L24.22,19.342Z" />
</svg>
