<?xml version="1.0" encoding="utf-8"?>
<svg version="1.1" xmlns="http://www.w3.org/2000/svg" xmlns:xlink="http://www.w3.org/1999/xlink" width="32" height="32" viewBox="0 0 32 32">
  <rect width="32" height="32" id="icon-bound" fill="none" />
  <path fill-rule="evenodd" d="M16,0C24.831,0 32,7.169 32,16C32,24.831 24.831,32 16,32C7.169,32 0,24.831 0,16C0,7.169 7.169,0 16,0ZM16,1C24.279,1 31,7.721 31,16C31,24.279 24.279,31 16,31C7.721,31 1,24.279 1,16C1,7.721 7.721,1 16,1ZM10.418,7.727C10.693,7.739 10.937,7.98 10.939,8.267L10.939,8.668C12.17,8.962 13.444,9.141 14.683,9.03C15.245,8.979 15.804,8.857 16.305,8.595C17.448,8.002 18.838,7.935 20.085,8.135C20.663,8.227 21.239,8.367 21.776,8.576C21.983,8.657 22.135,8.856 22.138,9.083C22.151,11.751 22.138,14.42 22.138,17.088C22.136,17.433 21.761,17.721 21.411,17.596C20.701,17.33 19.94,17.173 19.183,17.129C18.351,17.08 17.501,17.193 16.755,17.581C15.832,18.058 14.75,18.167 13.699,18.141C12.778,18.118 11.859,17.986 10.958,17.786L10.939,17.782L10.939,23.735C10.939,23.777 10.937,23.789 10.933,23.816C10.887,24.116 10.553,24.341 10.25,24.255C10.026,24.192 9.858,23.974 9.856,23.735L9.856,8.267C9.856,8.23 9.858,8.222 9.86,8.2C9.893,7.94 10.138,7.725 10.405,7.727L10.418,7.727ZM18.782,9.118C18.084,9.122 17.386,9.252 16.76,9.579C15.812,10.071 14.701,10.174 13.622,10.139C12.72,10.111 11.827,9.98 10.944,9.783L10.939,9.782L10.939,16.668C12.167,16.96 13.426,17.14 14.67,17.03C15.24,16.98 15.811,16.851 16.311,16.591C17.374,16.04 18.653,15.946 19.807,16.094C20.228,16.148 20.645,16.232 21.055,16.344L21.055,9.475C20.333,9.253 19.579,9.122 18.823,9.118C18.809,9.118 18.795,9.118 18.782,9.118Z" />
</svg>
