<?xml version="1.0" encoding="utf-8"?>
<svg version="1.1" xmlns="http://www.w3.org/2000/svg" xmlns:xlink="http://www.w3.org/1999/xlink" width="32" height="32" viewBox="0 0 32 32">
  <rect width="32" height="32" id="icon-bound" fill="none" />
  <path fill-rule="evenodd" d="M22.462,22.937C22.169,22.901 21.905,23.111 21.87,23.404C21.836,23.697 22.045,23.962 22.338,23.996C27.946,24.657 30.933,26.436 30.933,27.467C30.933,28.914 25.252,30.933 16,30.933C6.748,30.933 1.067,28.914 1.067,27.467C1.067,26.436 4.054,24.657 9.662,23.996C9.955,23.962 10.164,23.697 10.13,23.404C10.095,23.111 9.83,22.9 9.538,22.937C3.922,23.598 0,25.461 0,27.467C0,29.719 5.496,32 16,32C26.504,32 32,29.719 32,27.467C32,25.461 28.078,23.598 22.462,22.937ZM15.906,29.204L24.087,17.387C27.156,13.295 26.713,6.571 23.138,2.996C21.206,1.064 18.637,0 15.906,0C13.174,0 10.605,1.064 8.674,2.996C5.099,6.57 4.655,13.295 7.711,17.37L15.906,29.204ZM9.428,3.75C11.158,2.02 13.459,1.067 15.906,1.067C18.353,1.067 20.653,2.02 22.383,3.75C25.61,6.976 26.007,13.05 23.222,16.763L15.906,27.33L8.577,16.747C5.804,13.05 6.202,6.976 9.428,3.75ZM16,13.867C18.059,13.867 19.733,12.191 19.733,10.133C19.733,8.075 18.059,6.4 16,6.4C13.941,6.4 12.267,8.075 12.267,10.133C12.267,12.191 13.941,13.867 16,13.867ZM16,7.467C17.47,7.467 18.667,8.663 18.667,10.133C18.667,11.604 17.47,12.8 16,12.8C14.53,12.8 13.333,11.604 13.333,10.133C13.333,8.663 14.53,7.467 16,7.467Z" />
</svg>
