<?xml version="1.0" encoding="utf-8"?>
<svg version="1.1" xmlns="http://www.w3.org/2000/svg" xmlns:xlink="http://www.w3.org/1999/xlink" width="24" height="24" viewBox="0 0 24 24">
  <rect width="24" height="24" id="icon-bound" fill="none" />
  <path d="M14.22,17.342C13.83,17.74 13.83,18.38 14.224,18.767C14.625,19.162 15.259,19.162 15.66,18.767L21.807,12.71C22.201,12.321 22.201,11.678 21.807,11.29L15.66,5.233C15.259,4.838 14.625,4.838 14.224,5.233C13.83,5.621 13.83,6.264 14.224,6.652L18.629,10.994L3.021,10.994C2.46,10.994 2,11.438 2,11.995C2,12.552 2.46,13.006 3.021,13.006L18.628,13.006L14.22,17.342Z" />
</svg>
