<?xml version="1.0" encoding="utf-8"?>
<svg version="1.1" xmlns="http://www.w3.org/2000/svg" xmlns:xlink="http://www.w3.org/1999/xlink" width="32" height="32" viewBox="0 0 32 32">
  <rect width="32" height="32" id="icon-bound" fill="none" />
  <path fill-rule="evenodd" d="M16,0C24.831,0 32,7.169 32,16C32,24.831 24.831,32 16,32C7.169,32 0,24.831 0,16C0,7.169 7.169,0 16,0ZM16,1C24.279,1 31,7.721 31,16C31,24.279 24.279,31 16,31C7.721,31 1,24.279 1,16C1,7.721 7.721,1 16,1ZM25.482,18.098L22.254,12.717L25.151,11.912C25.45,11.829 25.625,11.519 25.542,11.221C25.459,10.922 25.149,10.747 24.851,10.83L21.249,11.83C21.249,11.83 21.249,11.831 21.248,11.831L16.543,13.138L16.543,6.961C16.543,6.651 16.291,6.4 15.981,6.4C15.671,6.4 15.42,6.651 15.42,6.961L15.42,13.45L10.426,14.837C10.425,14.837 10.425,14.837 10.425,14.837L6.811,15.841C6.513,15.924 6.338,16.233 6.421,16.532C6.49,16.78 6.715,16.943 6.961,16.943C7.011,16.943 7.062,16.937 7.112,16.923L9.364,16.297L6.48,21.104C6.428,21.192 6.4,21.291 6.4,21.393C6.4,23.692 8.271,25.562 10.569,25.562C12.868,25.562 14.739,23.692 14.739,21.393C14.739,21.291 14.711,21.192 14.659,21.104L11.43,15.723L20.188,13.29L17.304,18.098C17.252,18.185 17.224,18.285 17.224,18.387C17.224,20.686 19.094,22.556 21.393,22.556C22.507,22.556 23.554,22.122 24.341,21.335C25.129,20.547 25.562,19.5 25.562,18.387C25.562,18.285 25.535,18.185 25.482,18.098ZM10.569,24.44C9.081,24.44 7.84,23.367 7.575,21.955L13.563,21.955C13.299,23.367 12.057,24.44 10.569,24.44ZM21.393,21.433C19.905,21.433 18.663,20.36 18.399,18.948L24.387,18.948C24.123,20.36 22.881,21.433 21.393,21.433ZM13.186,20.832L10.569,16.471L7.953,20.832L13.186,20.832ZM24.01,17.825L21.393,13.464L18.777,17.825L24.01,17.825Z" />
</svg>
