<?xml version="1.0" encoding="utf-8"?>
<svg version="1.1" xmlns="http://www.w3.org/2000/svg" xmlns:xlink="http://www.w3.org/1999/xlink" width="16" height="16" viewBox="0 0 16 16">
  <rect width="16" height="16" id="icon-bound" fill="none" />
  <path d="M11.999,9.001C12.389,8.611 12.389,7.977 11.999,7.587C11.998,7.586 11.998,7.586 11.998,7.586C11.81,7.398 11.556,7.293 11.29,7.293C11.025,7.293 10.77,7.399 10.583,7.586C9.91,8.26 9,9.172 9,9.172L9,1C9,0.448 8.552,0 8,0C7.448,0 7,0.448 7,1C7,3.378 7,9.172 7,9.172C7,9.172 6.087,8.259 5.413,7.585C5.226,7.398 4.971,7.292 4.706,7.292C4.441,7.293 4.186,7.398 3.999,7.586C3.999,7.586 3.998,7.586 3.998,7.587C3.607,7.977 3.608,8.61 3.998,9.001C4.887,9.889 6.404,11.405 7.293,12.293C7.683,12.684 8.316,12.684 8.707,12.293C9.595,11.405 11.111,9.889 11.999,9.001ZM15,10C14.448,10 14,10.448 14,11C14,12.185 14,14 14,14L2,14L2,11C2,10.448 1.552,10 1,10C0.735,10 0.48,10.105 0.293,10.293C0.105,10.48 0,10.735 0,11C0,12.11 0,13.89 0,15C0,15.265 0.105,15.52 0.293,15.707C0.48,15.895 0.735,16 1,16L15,16C15.265,16 15.52,15.895 15.707,15.707C15.895,15.52 16,15.265 16,15L16,11C16,10.735 15.895,10.48 15.707,10.293C15.52,10.105 15.265,10 15,10C15,10 15,10 15,10Z" />
</svg>
